<?xml version="1.0" encoding="UTF-8"?>
<svg id="Layer_2" data-name="Layer 2" xmlns="http://www.w3.org/2000/svg" viewBox="0 0 121 64.75">
  <defs>
    <style>
      .cls-1 {
        fill: #000;
        stroke: #000;
        stroke-miterlimit: 10;
      }
    </style>
  </defs>
  <g id="Layer_1-2" data-name="Layer 1">
    <g>
      <path class="cls-1" d="m114.5,12.5H46.5c-3.31,0-6-2.69-6-6h0c0-3.31,2.69-6,6-6h68c3.31,0,6,2.69,6,6h0c0,3.31-2.69,6-6,6Z"/>
      <path class="cls-1" d="m114.5,26.37H6.5c-3.31,0-6,2.69-6,6h0c0,3.31,2.69,6,6,6h108c3.31,0,6-2.69,6-6h0c0-3.31-2.69-6-6-6Z"/>
      <path class="cls-1" d="m46.5,64.25h68c3.31,0,6-2.69,6-6h0c0-3.31-2.69-6-6-6H46.5c-3.31,0-6,2.69-6,6h0c0,3.31,2.69,6,6,6Z"/>
    </g>
  </g>
</svg>