<?xml version="1.0" encoding="utf-8"?>
<!-- Generator: Adobe Illustrator 27.8.1, SVG Export Plug-In . SVG Version: 6.00 Build 0)  -->
<svg version="1.1" id="Layer_2_00000109028371928294167990000005208855444903756161_" 
	 xmlns="http://www.w3.org/2000/svg" xmlns:xlink="http://www.w3.org/1999/xlink" x="0px" y="0px" viewBox="0 0 267.8 35.9"
	 style="enable-background:new 0 0 267.8 35.9;" xml:space="preserve">
<style type="text/css">
	.st0{fill:#000;}
</style>
<g id="Layer_1-2">
	<g>
		<path class="st0" d="M29.5,11.4h-4.2c-0.2-1.2-0.7-2.3-1.3-3.2s-1.4-1.7-2.2-2.3s-1.9-1.1-2.9-1.4C17.7,4.1,16.6,4,15.4,4
			c-2.1,0-4,0.5-5.7,1.6s-3.1,2.6-4.1,4.7c-1,2.1-1.5,4.6-1.5,7.6s0.5,5.6,1.5,7.6s2.4,3.6,4.1,4.7s3.6,1.6,5.7,1.6
			c1.2,0,2.3-0.2,3.3-0.5s2-0.8,2.9-1.4s1.6-1.4,2.2-2.3c0.6-0.9,1-2,1.3-3.2h4.2c-0.3,1.8-0.9,3.4-1.7,4.8s-1.9,2.6-3.1,3.6
			c-1.2,1-2.6,1.7-4.2,2.2c-1.5,0.5-3.2,0.8-5,0.8c-3,0-5.6-0.7-7.9-2.2S3.3,30.2,2,27.5s-2-5.9-2-9.5s0.7-6.9,2-9.6
			c1.3-2.7,3.2-4.8,5.5-6.2s5-2.2,7.9-2.2c1.8,0,3.4,0.3,5,0.8s3,1.3,4.2,2.2s2.3,2.2,3.1,3.6C28.5,8,29.1,9.6,29.5,11.4z"/>
		<path class="st0" d="M36.3,35.4V0.5h4.2v31.2h16.2v3.8H36.3z"/>
		<path class="st0" d="M67.5,0.5v34.9h-4.2V0.5H67.5z"/>
		<path class="st0" d="M75.9,0.5H81l11.9,29h0.4l11.9-29h5.1v34.9h-3.9V8.9h-0.3L95,35.4h-3.8L80.3,8.9h-0.3v26.5H76L75.9,0.5
			L75.9,0.5L75.9,0.5z"/>
		<path class="st0" d="M120.1,35.4h-4.4l12.8-34.9h4.4l12.8,34.9h-4.4L130.8,6h-0.3L120.1,35.4L120.1,35.4z M121.7,21.8h17.9v3.8
			h-17.9V21.8z"/>
		<path class="st0" d="M151.1,35.4V0.5H172v3.8h-16.7V16h15.1v3.8h-15.1v15.6H151.1L151.1,35.4z"/>
		<path class="st0" d="M208.7,17.9c0,3.7-0.7,6.9-2,9.5c-1.3,2.7-3.1,4.8-5.5,6.2s-5,2.2-7.9,2.2s-5.6-0.7-7.9-2.2s-4.1-3.5-5.5-6.2
			s-2-5.9-2-9.5s0.7-6.9,2-9.6c1.3-2.7,3.1-4.8,5.5-6.2s5-2.2,7.9-2.2s5.6,0.7,7.9,2.2s4.1,3.5,5.5,6.2
			C208,11.1,208.7,14.2,208.7,17.9z M204.6,17.9c0-3-0.5-5.6-1.5-7.6s-2.4-3.7-4.1-4.7S195.4,4,193.3,4s-4,0.5-5.7,1.6
			s-3.1,2.6-4.1,4.7c-1,2.1-1.5,4.6-1.5,7.6s0.5,5.6,1.5,7.6s2.4,3.6,4.1,4.7s3.6,1.6,5.7,1.6s4-0.5,5.7-1.6s3.1-2.6,4.1-4.7
			C204.1,23.5,204.6,21,204.6,17.9z"/>
		<path class="st0" d="M215.8,35.4V0.5h11.8c2.7,0,5,0.5,6.7,1.4s3.1,2.2,3.9,3.8s1.3,3.5,1.3,5.5s-0.4,3.9-1.3,5.5
			s-2.1,2.8-3.9,3.7s-4,1.4-6.7,1.4h-9.5v-3.8h9.4c1.9,0,3.4-0.3,4.5-0.8s2-1.3,2.5-2.3s0.8-2.2,0.8-3.6s-0.3-2.6-0.8-3.7
			c-0.5-1.1-1.4-1.8-2.5-2.4c-1.1-0.6-2.7-0.9-4.6-0.9H220v31.2L215.8,35.4L215.8,35.4z M232.2,19.7l8.6,15.7h-4.9l-8.4-15.7H232.2z
			"/>
		<path class="st0" d="M246.5,35.4V0.5h21.1v3.8h-16.8V16h15.8v3.8h-15.8v11.9h17.1v3.8H246.5z"/>
	</g>
</g>
</svg>
