<svg width="26" height="26" viewBox="0 0 26 26" fill="none" xmlns="http://www.w3.org/2000/svg">
<path fill-rule="evenodd" clip-rule="evenodd" d="M13 0.396484L16.4919 3.8884C16.6872 4.08367 16.6872 4.40025 16.4919 4.59551C16.2967 4.79077 15.9801 4.79077 15.7848 4.59551L13.5 2.3107V7.03388C13.5 7.31002 13.2761 7.53388 13 7.53388C12.7239 7.53388 12.5 7.31002 12.5 7.03388V2.3107L10.2152 4.59551C10.0199 4.79077 9.70334 4.79077 9.50808 4.59551C9.31282 4.40025 9.31282 4.08367 9.50808 3.8884L13 0.396484ZM13.0002 13.6036C13.2764 13.6036 13.5002 13.8274 13.5002 14.1036V17.5269C13.5002 17.803 13.2764 18.0269 13.0002 18.0269C12.7241 18.0269 12.5002 17.803 12.5002 17.5269V14.1036C12.5002 13.8274 12.7241 13.6036 13.0002 13.6036ZM6.11585 15.7546C6.3359 15.5878 6.64953 15.6309 6.81636 15.851L8.91603 18.6205C9.08286 18.8405 9.03971 19.1541 8.81966 19.321C8.59961 19.4878 8.28598 19.4447 8.11915 19.2246L6.01948 16.4551C5.85265 16.2351 5.8958 15.9214 6.11585 15.7546ZM19.8846 15.7546C20.1047 15.9214 20.1478 16.2351 19.981 16.4551L17.8813 19.2246C17.7145 19.4447 17.4009 19.4878 17.1808 19.321C16.9608 19.1541 16.9176 18.8405 17.0844 18.6205L19.1841 15.851C19.3509 15.6309 19.6646 15.5878 19.8846 15.7546ZM7.31162 24.6036L1 24.6036C0.723857 24.6036 0.5 24.8274 0.5 25.1036C0.5 25.3797 0.723858 25.6036 1 25.6036L25 25.6036C25.2761 25.6036 25.5 25.3797 25.5 25.1036C25.5 24.8274 25.2761 24.6036 25 24.6036H18.6888C18.5626 21.6679 16.0449 19.3579 13.0002 19.3579C9.95561 19.3579 7.43791 21.6679 7.31162 24.6036ZM8.31286 24.6036H17.6876C17.5616 22.2562 15.5301 20.3579 13.0002 20.3579C10.4704 20.3579 8.43886 22.2562 8.31286 24.6036ZM1.87258 21.3702C1.95468 21.1065 2.23497 20.9593 2.49863 21.0414L5.89596 22.0993C6.15962 22.1814 6.3068 22.4617 6.2247 22.7253C6.14261 22.989 5.86232 23.1362 5.59866 23.0541L2.20133 21.9962C1.93767 21.9141 1.79049 21.6338 1.87258 21.3702ZM24.1279 21.3702C24.21 21.6338 24.0628 21.9141 23.7991 21.9962L20.4018 23.0541C20.1382 23.1362 19.8579 22.989 19.7758 22.7253C19.6937 22.4617 19.8409 22.1814 20.1045 22.0993L23.5018 21.0414C23.7655 20.9593 24.0458 21.1065 24.1279 21.3702Z" fill="black"/>
</svg>
